<svg xmlns="http://www.w3.org/2000/svg" xmlns:xlink="http://www.w3.org/1999/xlink" preserveAspectRatio="xMidYMid" width="15" height="16" viewBox="0 0 15 16">
  <defs>
    <style>
      .cls-1 {
        fill: #d4d4d4;
        fill-rule: evenodd;
      }
    </style>
  </defs>
  <path d="M14.527,6.565 L12.964,6.565 L12.964,5.174 C12.964,4.619 12.528,4.166 11.993,4.166 L11.051,4.166 L11.051,2.959 C11.051,2.687 11.264,2.466 11.526,2.466 L14.527,2.466 C14.788,2.466 15.001,2.687 15.001,2.959 L15.001,6.070 C15.001,6.344 14.788,6.565 14.527,6.565 ZM3.492,9.852 C3.309,9.852 3.159,9.696 3.159,9.505 L3.159,7.318 C3.159,7.126 3.309,6.971 3.492,6.971 L5.587,6.971 C5.770,6.971 5.918,7.126 5.918,7.318 L5.918,9.505 C5.918,9.696 5.770,9.852 5.587,9.852 L3.492,9.852 ZM8.277,0.975 L0.802,0.975 L0.802,13.112 L8.277,13.112 L8.277,11.052 L9.081,11.052 L9.081,15.409 C9.081,15.737 8.828,16.001 8.513,16.001 L0.565,16.001 C0.252,16.001 -0.003,15.737 -0.003,15.409 L-0.003,0.602 C-0.003,0.269 0.252,-0.000 0.565,-0.000 L8.513,-0.000 C8.612,-0.000 8.705,0.027 8.785,0.073 C8.817,0.092 8.846,0.114 8.874,0.138 C9.001,0.248 9.081,0.415 9.081,0.602 L9.081,4.169 L8.277,4.169 L8.277,0.975 ZM4.539,15.178 C4.868,15.178 5.134,14.902 5.134,14.562 C5.134,14.222 4.868,13.945 4.539,13.945 C4.210,13.945 3.945,14.222 3.945,14.562 C3.945,14.902 4.210,15.178 4.539,15.178 ZM8.022,9.847 C7.734,9.847 7.501,9.605 7.501,9.304 L7.501,5.873 C7.501,5.573 7.734,5.330 8.022,5.330 L11.317,5.330 C11.604,5.330 11.838,5.573 11.838,5.873 L11.838,8.523 L10.901,8.523 C10.586,8.523 10.330,8.791 10.330,9.119 L10.330,9.847 L8.022,9.847 ZM11.387,9.435 L13.481,9.435 C13.665,9.435 13.812,9.591 13.812,9.781 L13.812,11.960 C13.812,12.150 13.665,12.306 13.481,12.306 L11.387,12.306 C11.203,12.306 11.056,12.150 11.056,11.960 L11.056,9.781 C11.056,9.591 11.203,9.435 11.387,9.435 Z" class="cls-1"/>
</svg>
