<svg xmlns="http://www.w3.org/2000/svg" xmlns:xlink="http://www.w3.org/1999/xlink" preserveAspectRatio="xMidYMid" width="16.53" height="16.5" viewBox="0 0 16.53 16.5">
  <defs>
    <style>
      .cls-1 {
        fill: #fff;
        fill-rule: evenodd;
      }
    </style>
  </defs>
  <path d="M11.337,7.702 L15.927,3.112 C16.559,2.480 16.713,1.463 16.191,0.738 C15.526,-0.186 14.229,-0.263 13.459,0.507 L8.800,5.166 C8.503,5.463 8.020,5.463 7.723,5.166 L3.132,0.575 C2.500,-0.057 1.483,-0.211 0.758,0.312 C-0.166,0.977 -0.243,2.273 0.528,3.044 L5.186,7.702 C5.484,8.000 5.484,8.482 5.186,8.780 L0.596,13.370 C-0.036,14.002 -0.190,15.019 0.332,15.744 C0.997,16.668 2.294,16.745 3.064,15.975 L7.723,11.316 C8.020,11.019 8.503,11.019 8.800,11.316 L13.391,15.907 C14.023,16.539 15.040,16.693 15.765,16.170 C16.689,15.505 16.765,14.208 15.995,13.438 L11.337,8.780 C11.039,8.482 11.039,8.000 11.337,7.702 Z" class="cls-1"/>
</svg>
