<svg xmlns="http://www.w3.org/2000/svg" xmlns:xlink="http://www.w3.org/1999/xlink" preserveAspectRatio="xMidYMid" width="46" height="46" viewBox="0 0 46 46">
  <defs>
    <style>
      .cls-1 {
        fill: #fff;
        fill-rule: evenodd;
      }
    </style>
  </defs>
  <path d="M23.000,46.000 C10.297,46.000 0.000,35.703 0.000,23.000 C0.000,10.297 10.297,0.000 23.000,0.000 C35.703,0.000 46.000,10.297 46.000,23.000 C46.000,35.703 35.703,46.000 23.000,46.000 ZM23.000,2.000 C11.402,2.000 2.000,11.402 2.000,23.000 C2.000,34.598 11.402,44.000 23.000,44.000 C34.598,44.000 44.000,34.598 44.000,23.000 C44.000,11.402 34.598,2.000 23.000,2.000 ZM34.823,19.298 C34.832,19.508 34.836,19.721 34.836,19.935 C34.836,26.446 29.873,33.952 20.792,33.952 C18.005,33.952 15.411,33.136 13.226,31.740 C13.612,31.786 14.005,31.808 14.404,31.808 C16.716,31.808 18.845,31.020 20.534,29.698 C18.374,29.661 16.551,28.235 15.924,26.279 C16.224,26.337 16.534,26.366 16.852,26.366 C17.303,26.366 17.739,26.308 18.153,26.193 C15.893,25.741 14.193,23.750 14.193,21.362 L14.193,21.301 C14.858,21.668 15.620,21.892 16.429,21.916 C15.105,21.032 14.233,19.524 14.233,17.816 C14.233,16.913 14.476,16.067 14.901,15.337 C17.337,18.320 20.973,20.279 25.075,20.485 C24.990,20.125 24.948,19.750 24.948,19.363 C24.948,16.643 27.158,14.437 29.883,14.437 C31.303,14.437 32.587,15.035 33.485,15.992 C34.611,15.772 35.666,15.362 36.620,14.798 C36.253,15.948 35.471,16.913 34.450,17.523 C35.449,17.404 36.401,17.139 37.285,16.747 C36.625,17.735 35.788,18.602 34.823,19.298 Z" class="cls-1"/>
</svg>
