<svg xmlns="http://www.w3.org/2000/svg" xmlns:xlink="http://www.w3.org/1999/xlink" preserveAspectRatio="xMidYMid" width="48.063" height="47.94" viewBox="0 0 48.063 47.94">
  <defs>
    <style>
      .cls-1 {
        fill: #fff;
        fill-rule: evenodd;
      }
    </style>
  </defs>
  <path d="M24.034,47.926 C10.764,47.926 0.010,37.196 0.010,23.960 C0.010,10.725 10.764,-0.005 24.034,-0.005 C37.303,-0.005 48.059,10.725 48.059,23.960 C48.059,37.196 37.303,47.926 24.034,47.926 ZM36.050,21.501 L36.050,16.609 C36.050,14.055 33.967,11.978 31.406,11.978 L16.668,11.978 C14.107,11.978 12.024,14.055 12.024,16.609 L12.024,21.501 L12.024,31.312 C12.024,33.866 14.107,35.944 16.668,35.944 L31.406,35.944 C33.967,35.944 36.050,33.866 36.050,31.312 L36.050,21.501 ZM31.406,33.608 L16.668,33.608 C15.397,33.608 14.365,32.579 14.365,31.312 L14.365,21.501 L17.952,21.501 C17.641,22.261 17.468,23.091 17.468,23.960 C17.468,27.574 20.414,30.514 24.037,30.514 C27.660,30.514 30.606,27.574 30.606,23.960 C30.606,23.091 30.431,22.261 30.122,21.501 L33.709,21.501 L33.709,31.312 C33.709,32.579 32.676,33.608 31.406,33.608 ZM29.196,14.752 L32.738,14.740 L33.270,14.738 L33.270,15.265 L33.270,18.801 L29.210,18.813 L29.196,14.752 ZM24.037,28.178 C21.705,28.178 19.809,26.286 19.809,23.960 C19.809,23.042 20.108,22.194 20.609,21.501 C21.377,20.439 22.626,19.742 24.037,19.742 C25.448,19.742 26.696,20.439 27.465,21.501 C27.967,22.194 28.266,23.042 28.266,23.960 C28.266,26.286 26.368,28.178 24.037,28.178 Z" class="cls-1"/>
</svg>
