<svg xmlns="http://www.w3.org/2000/svg" xmlns:xlink="http://www.w3.org/1999/xlink" preserveAspectRatio="xMidYMid" width="63" height="63" viewBox="0 0 63 63">
  <defs>
    <style>
      .cls-1 {
        fill: #fff;
        opacity: 0.4;
        fill-rule: evenodd;
      }
    </style>
  </defs>
  <path d="M31.497,62.995 C14.097,62.995 -0.005,48.895 -0.005,31.504 C-0.005,14.110 14.097,0.010 31.497,0.010 C48.895,0.010 63.001,14.110 63.001,31.504 C63.001,48.895 48.895,62.995 31.497,62.995 ZM31.497,3.161 C15.835,3.161 3.144,15.848 3.144,31.504 C3.144,47.154 15.835,59.844 31.497,59.844 C47.153,59.844 59.848,47.154 59.848,31.504 C59.848,15.848 47.153,3.161 31.497,3.161 ZM39.747,33.430 L27.056,44.868 C26.082,45.608 24.613,44.181 24.613,43.017 L37.012,31.500 L24.613,20.570 C24.613,19.406 26.082,17.979 27.056,18.719 L39.745,30.147 C40.866,30.997 40.866,32.579 39.747,33.430 Z" class="cls-1"/>
</svg>
