<svg xmlns="http://www.w3.org/2000/svg" xmlns:xlink="http://www.w3.org/1999/xlink" preserveAspectRatio="xMidYMid" width="16" height="24" viewBox="0 0 16 24">
  <defs>
    <style>
      .cls-1 {
        fill: #d4d4d4;
        fill-rule: evenodd;
      }
    </style>
  </defs>
  <path d="M12.743,1.675 C12.743,1.036 12.363,0.000 11.047,0.000 C9.732,0.000 9.316,1.206 9.316,1.675 C9.316,2.277 9.766,3.082 9.834,3.250 C9.939,3.384 9.939,3.685 9.696,3.786 C9.455,3.919 8.831,4.123 8.624,4.222 C8.415,4.322 7.723,4.724 7.584,4.994 C7.480,5.227 7.377,5.563 7.342,5.798 C6.962,7.105 5.369,13.206 5.369,13.206 C5.369,13.206 5.126,13.273 5.022,13.441 C4.953,13.607 4.988,13.810 5.022,13.943 C4.953,13.978 4.711,13.978 4.642,13.978 C4.607,13.978 3.777,13.943 3.637,13.876 C3.499,13.843 3.360,13.742 3.360,13.608 C3.360,13.441 3.499,13.374 3.533,13.306 C3.533,13.273 3.879,13.005 3.879,12.469 C3.879,11.898 3.568,11.263 2.599,11.263 C1.664,11.263 1.352,12.033 1.352,12.400 C1.352,12.869 1.698,13.306 1.804,13.374 C1.871,13.407 1.941,13.608 1.941,13.640 C1.941,13.675 1.871,13.843 1.664,13.978 C1.422,14.109 1.214,14.246 1.007,14.480 C0.832,14.750 0.522,15.250 0.486,15.454 C0.486,15.688 0.002,17.430 0.002,18.570 C0.002,19.242 0.486,19.305 0.590,19.305 C0.694,19.305 1.145,19.140 1.145,18.873 C1.145,18.603 1.006,18.570 1.006,18.402 C1.006,18.200 1.248,16.760 1.283,16.658 C1.283,16.525 1.422,16.324 1.525,16.256 C1.664,16.490 1.734,16.893 1.734,17.163 C1.734,17.397 1.455,19.305 1.455,19.407 C1.455,19.475 1.387,19.811 1.664,19.909 L1.664,23.261 C1.664,23.261 1.455,23.531 1.455,23.666 C1.455,23.765 1.560,23.799 1.594,23.799 C1.664,23.799 1.871,23.666 1.941,23.599 C2.010,23.564 2.288,23.364 2.356,23.261 C2.425,23.195 2.529,23.095 2.564,22.860 C2.633,22.626 2.841,20.849 2.841,20.814 C2.841,20.782 2.910,20.649 2.980,20.546 C3.049,20.415 3.290,20.311 3.290,20.513 C3.325,20.716 3.533,22.895 3.533,22.895 C3.533,22.895 3.533,23.095 3.568,23.163 C3.637,23.228 3.707,23.329 3.777,23.396 C3.844,23.464 4.330,23.800 4.434,23.867 C4.502,23.900 4.607,23.933 4.607,23.933 C4.642,23.933 4.814,23.900 4.814,23.765 C4.814,23.599 4.711,23.464 4.676,23.431 C4.676,23.431 4.434,23.297 4.434,22.927 C4.434,22.559 4.641,20.814 4.641,20.814 C4.641,20.814 5.022,20.581 5.092,20.446 C5.195,20.347 5.369,20.112 5.369,19.711 C5.369,19.340 4.538,15.653 4.538,15.653 C4.538,15.653 4.434,15.350 4.641,15.284 C4.884,15.184 5.679,14.813 5.749,14.781 C5.853,14.750 6.407,14.447 6.614,14.312 C6.857,14.178 6.995,13.843 6.684,13.575 L9.004,7.709 C8.934,9.419 8.795,12.033 8.795,12.869 C8.795,13.710 9.107,18.268 9.177,20.415 C9.211,20.782 9.350,22.661 9.350,22.827 C9.350,23.028 9.107,23.464 9.038,23.564 C8.968,23.697 8.968,23.867 9.072,23.933 C9.142,24.000 9.316,23.966 9.454,23.900 C9.592,23.834 10.354,23.163 10.389,23.130 C10.459,23.062 10.596,22.927 10.734,22.727 C10.839,22.489 10.839,21.486 10.839,20.814 C10.839,19.541 11.047,17.497 11.082,17.027 C11.150,16.525 11.254,15.853 11.289,15.520 C11.358,15.184 11.635,14.379 11.635,14.379 C11.635,14.379 11.808,16.591 11.843,16.994 C11.878,17.397 11.878,20.814 11.878,20.814 C11.878,21.453 11.809,22.727 11.809,22.860 C11.809,22.995 11.878,23.095 11.982,23.195 C12.085,23.261 12.743,23.799 12.779,23.834 C12.813,23.867 12.950,24.000 13.125,24.000 C13.297,24.000 13.332,23.899 13.367,23.765 C13.401,23.599 13.125,23.363 13.090,23.329 C13.090,23.261 13.298,21.686 13.401,20.814 C13.401,20.311 13.782,17.027 13.782,14.479 C13.782,11.898 13.401,8.849 13.367,7.541 C13.991,8.714 14.787,10.591 14.787,12.233 C14.787,13.339 14.614,13.608 14.614,13.943 C14.614,14.144 14.891,14.547 15.237,14.547 C15.583,14.547 15.965,14.178 15.965,13.910 C15.965,13.710 15.860,13.575 15.860,13.407 C15.860,13.239 15.998,12.301 15.998,11.765 C15.998,11.228 15.965,9.385 15.860,8.949 C15.791,8.512 15.411,6.769 15.273,6.167 C15.167,5.563 14.822,5.194 14.440,4.859 C14.059,4.558 13.610,4.255 13.195,4.089 C12.780,3.954 12.226,3.821 12.017,3.786 C11.844,3.753 11.844,3.450 11.982,3.217 C12.120,3.014 12.743,2.379 12.743,1.675 " class="cls-1"/>
</svg>
