<svg xmlns="http://www.w3.org/2000/svg" xmlns:xlink="http://www.w3.org/1999/xlink" preserveAspectRatio="xMidYMid" width="32" height="26" viewBox="0 0 32 26">
  <defs>
    <style>
      .cls-1 {
        fill: #d8d8d8;
        fill-rule: evenodd;
      }
    </style>
  </defs>
  <path d="M24.542,25.991 C28.236,25.991 30.780,23.512 30.780,20.473 C30.780,19.274 30.206,15.595 25.445,14.955 C25.445,11.037 27.908,6.799 32.011,3.600 L27.908,0.001 C22.080,3.840 17.566,11.837 17.566,18.074 C17.566,22.713 20.110,25.991 24.542,25.991 ZM6.978,25.991 C10.671,25.991 13.216,23.512 13.216,20.473 C13.216,19.274 12.641,15.595 7.880,14.955 C7.880,11.037 10.343,6.799 14.447,3.600 L10.343,0.001 C4.515,3.840 0.001,11.837 0.001,18.074 C0.001,22.713 2.545,25.991 6.978,25.991 Z" class="cls-1"/>
</svg>
