<svg xmlns="http://www.w3.org/2000/svg" xmlns:xlink="http://www.w3.org/1999/xlink" preserveAspectRatio="xMidYMid" width="23" height="16" viewBox="0 0 23 16">
  <defs>
    <style>
      .cls-1 {
        fill: #00d2d2;
        fill-rule: evenodd;
      }
    </style>
  </defs>
  <path d="M22.984,-0.002 L18.229,-0.002 L17.889,0.056 L17.889,0.513 C17.889,0.567 18.051,0.611 18.096,0.645 C18.138,0.681 18.256,0.701 18.303,0.701 L18.734,0.722 C19.223,0.745 19.371,0.851 19.562,1.031 C19.748,1.215 19.779,1.529 19.633,1.971 L15.431,12.939 L15.271,12.891 L12.600,6.887 C12.639,6.798 12.663,6.748 12.663,6.748 L14.848,2.257 C15.102,1.783 15.348,1.360 15.474,1.162 C15.703,0.802 15.814,0.735 16.435,0.702 C16.563,0.702 16.611,0.640 16.611,0.514 L16.611,0.060 L16.580,0.011 C16.580,0.011 13.967,0.003 12.776,0.011 L12.778,0.059 L12.778,0.513 C12.778,0.568 12.746,0.613 12.789,0.646 C12.834,0.683 12.853,0.701 12.901,0.701 L13.080,0.724 C13.566,0.746 13.783,0.886 13.849,0.973 C13.966,1.130 14.021,1.299 13.739,1.972 L12.055,5.657 L10.535,2.239 C10.036,1.148 9.913,0.810 10.665,0.746 L10.867,0.700 C11.011,0.700 10.988,0.643 10.988,0.534 L10.988,0.056 L10.973,0.018 C10.973,0.018 8.188,0.018 6.918,0.018 L6.901,0.065 L6.901,0.544 C6.901,0.651 7.007,0.679 7.203,0.709 C7.907,0.810 7.895,0.891 8.590,2.406 C8.695,2.633 9.002,3.319 9.002,3.319 L10.587,6.739 C10.587,6.739 10.766,7.180 11.048,7.862 L8.743,12.910 L8.612,12.873 C8.612,12.873 5.038,4.591 4.003,1.819 C3.894,1.535 3.847,1.320 3.847,1.189 C3.847,0.907 4.078,0.755 4.540,0.735 L5.243,0.709 C5.387,0.709 5.623,0.649 5.623,0.523 L5.623,0.069 L5.411,0.022 C5.411,0.022 1.031,0.016 0.146,0.022 L-0.000,0.069 L-0.000,0.548 C-0.000,0.633 0.115,0.686 0.313,0.709 C0.857,0.742 1.223,0.837 1.394,0.995 C1.565,1.157 1.751,1.562 1.990,2.193 C3.291,5.624 6.054,11.744 7.400,15.231 C7.786,16.181 8.274,16.329 8.865,15.201 C9.472,13.962 10.699,11.213 11.593,9.183 C12.431,11.207 13.570,13.946 14.120,15.187 C14.557,16.180 15.056,16.278 15.563,15.217 C16.887,11.983 20.755,2.254 20.755,2.254 C20.922,1.777 21.157,1.410 21.458,1.142 C21.756,0.878 22.201,0.729 22.824,0.700 C22.950,0.700 23.000,0.636 23.000,0.513 L23.000,0.056 L22.984,-0.002 Z" class="cls-1"/>
</svg>
