<svg xmlns="http://www.w3.org/2000/svg" xmlns:xlink="http://www.w3.org/1999/xlink" preserveAspectRatio="xMidYMid" width="48.031" height="47.94" viewBox="0 0 48.031 47.94">
  <defs>
    <style>
      .cls-1 {
        fill: #fff;
        fill-rule: evenodd;
      }
    </style>
  </defs>
  <path d="M24.017,-0.006 C10.752,-0.006 -0.002,10.728 -0.002,23.967 C-0.002,37.208 10.752,47.940 24.017,47.940 C37.281,47.940 48.034,37.208 48.034,23.967 C48.034,10.728 37.281,-0.006 24.017,-0.006 ZM33.604,20.238 C33.613,20.448 33.617,20.661 33.617,20.875 C33.617,27.386 28.654,34.892 19.573,34.892 C16.786,34.892 14.192,34.076 12.007,32.680 C12.393,32.726 12.786,32.748 13.185,32.748 C15.497,32.748 17.626,31.960 19.315,30.638 C17.155,30.601 15.332,29.175 14.705,27.219 C15.005,27.277 15.315,27.306 15.633,27.306 C16.084,27.306 16.520,27.248 16.934,27.133 C14.674,26.681 12.974,24.690 12.974,22.302 L12.974,22.241 C13.639,22.608 14.401,22.832 15.210,22.856 C13.886,21.972 13.014,20.464 13.014,18.756 C13.014,17.853 13.257,17.007 13.682,16.277 C16.118,19.260 19.754,21.219 23.856,21.425 C23.771,21.065 23.729,20.690 23.729,20.303 C23.729,17.583 25.939,15.377 28.664,15.377 C30.084,15.377 31.368,15.975 32.266,16.932 C33.392,16.712 34.447,16.302 35.401,15.738 C35.034,16.888 34.251,17.853 33.231,18.463 C34.230,18.344 35.182,18.079 36.066,17.687 C35.406,18.675 34.569,19.542 33.604,20.238 Z" class="cls-1"/>
</svg>
