<svg xmlns="http://www.w3.org/2000/svg" xmlns:xlink="http://www.w3.org/1999/xlink" preserveAspectRatio="xMidYMid" width="48.031" height="47.94" viewBox="0 0 48.031 47.94">
  <defs>
    <style>
      .cls-1 {
        fill: #fff;
        fill-rule: evenodd;
      }
    </style>
  </defs>
  <path d="M24.028,0.010 C37.290,0.010 48.042,10.740 48.042,23.975 C48.042,37.208 37.290,47.938 24.028,47.938 C10.764,47.938 0.011,37.208 0.011,23.975 C0.011,10.740 10.764,0.010 24.028,0.010 ZM23.117,30.598 L24.472,30.598 C24.472,30.598 24.882,30.551 25.091,30.319 C25.283,30.106 25.276,29.707 25.276,29.707 C25.276,29.707 25.250,27.830 26.095,27.555 C26.926,27.283 27.996,29.367 29.127,30.168 C29.984,30.774 30.634,30.640 30.634,30.640 L33.662,30.598 C33.662,30.598 35.246,30.497 34.497,29.213 C34.435,29.107 34.058,28.263 32.245,26.529 C30.344,24.710 30.599,25.006 32.888,21.865 C34.280,19.949 34.837,18.781 34.664,18.282 C34.497,17.803 33.472,17.930 33.472,17.930 L30.063,17.951 C30.063,17.951 29.810,17.917 29.622,18.032 C29.440,18.144 29.321,18.407 29.321,18.407 C29.321,18.407 28.782,19.891 28.061,21.149 C26.544,23.807 25.938,23.947 25.689,23.782 C25.111,23.396 25.256,22.237 25.256,21.412 C25.256,18.837 25.635,17.762 24.517,17.487 C24.146,17.393 23.874,17.332 22.927,17.321 C21.709,17.310 20.679,17.326 20.097,17.621 C19.708,17.817 19.409,18.252 19.592,18.278 C19.817,18.308 20.327,18.419 20.597,18.799 C20.947,19.290 20.935,20.388 20.935,20.388 C20.935,20.388 21.137,23.420 20.467,23.798 C20.007,24.055 19.376,23.528 18.023,21.119 C17.330,19.883 16.806,18.517 16.806,18.517 C16.806,18.517 16.705,18.264 16.524,18.126 C16.305,17.961 16.000,17.907 16.000,17.907 L12.760,17.930 C12.760,17.930 12.272,17.945 12.096,18.162 C11.937,18.356 12.082,18.757 12.082,18.757 C12.082,18.757 14.620,24.874 17.491,27.956 C20.126,30.784 23.117,30.598 23.117,30.598 L23.117,30.598 Z" class="cls-1"/>
</svg>
