<svg xmlns="http://www.w3.org/2000/svg" xmlns:xlink="http://www.w3.org/1999/xlink" preserveAspectRatio="xMidYMid" width="46" height="46" viewBox="0 0 46 46">
  <defs>
    <style>
      .cls-1 {
        fill: #fff;
        fill-rule: evenodd;
      }
    </style>
  </defs>
  <path d="M23.000,46.000 C10.297,46.000 -0.000,35.703 -0.000,23.000 C-0.000,10.297 10.297,0.000 23.000,0.000 C35.703,0.000 46.000,10.297 46.000,23.000 C46.000,35.703 35.703,46.000 23.000,46.000 ZM23.000,2.000 C11.402,2.000 2.000,11.402 2.000,23.000 C2.000,34.598 11.402,44.000 23.000,44.000 C34.598,44.000 44.000,34.598 44.000,23.000 C44.000,11.402 34.598,2.000 23.000,2.000 ZM30.468,35.004 L15.730,35.004 C13.169,35.004 11.086,32.926 11.086,30.372 L11.086,20.561 L11.086,15.669 C11.086,13.115 13.169,11.038 15.730,11.038 L30.468,11.038 C33.029,11.038 35.112,13.115 35.112,15.669 L35.112,20.561 L35.112,30.372 C35.112,32.926 33.029,35.004 30.468,35.004 ZM26.527,20.561 C25.758,19.499 24.510,18.802 23.099,18.802 C21.688,18.802 20.439,19.499 19.671,20.561 C19.170,21.254 18.871,22.102 18.871,23.020 C18.871,25.346 20.767,27.238 23.099,27.238 C25.430,27.238 27.328,25.346 27.328,23.020 C27.328,22.102 27.029,21.254 26.527,20.561 ZM32.332,14.325 L32.332,13.798 L31.800,13.800 L28.258,13.812 L28.272,17.873 L32.332,17.861 L32.332,14.325 ZM32.771,20.561 L29.184,20.561 C29.493,21.321 29.668,22.151 29.668,23.020 C29.668,26.634 26.722,29.574 23.099,29.574 C19.476,29.574 16.530,26.634 16.530,23.020 C16.530,22.151 16.703,21.321 17.014,20.561 L13.427,20.561 L13.427,30.372 C13.427,31.639 14.459,32.668 15.730,32.668 L30.468,32.668 C31.738,32.668 32.771,31.639 32.771,30.372 L32.771,20.561 Z" class="cls-1"/>
</svg>
