<svg xmlns="http://www.w3.org/2000/svg" xmlns:xlink="http://www.w3.org/1999/xlink" preserveAspectRatio="xMidYMid" width="46" height="46" viewBox="0 0 46 46">
  <defs>
    <style>
      .cls-1 {
        fill: #fff;
        fill-rule: evenodd;
      }
    </style>
  </defs>
  <path d="M23.000,46.000 C10.297,46.000 -0.000,35.703 -0.000,23.000 C-0.000,10.297 10.297,0.000 23.000,0.000 C35.703,0.000 46.000,10.297 46.000,23.000 C46.000,35.703 35.703,46.000 23.000,46.000 ZM23.000,2.000 C11.402,2.000 2.000,11.402 2.000,23.000 C2.000,34.598 11.402,44.000 23.000,44.000 C34.598,44.000 44.000,34.598 44.000,23.000 C44.000,11.402 34.598,2.000 23.000,2.000 ZM31.370,25.589 C33.183,27.323 33.559,28.167 33.622,28.273 C34.371,29.557 32.787,29.658 32.787,29.658 L29.759,29.700 C29.759,29.700 29.109,29.834 28.252,29.228 C27.121,28.427 26.051,26.343 25.220,26.615 C24.375,26.890 24.401,28.767 24.401,28.767 C24.401,28.767 24.408,29.166 24.216,29.379 C24.007,29.611 23.597,29.658 23.597,29.658 L22.242,29.658 C22.242,29.658 19.251,29.844 16.616,27.016 C13.745,23.934 11.207,17.817 11.207,17.817 C11.207,17.817 11.062,17.416 11.221,17.222 C11.397,17.005 11.885,16.990 11.885,16.990 L15.125,16.967 C15.125,16.967 15.430,17.021 15.649,17.186 C15.830,17.324 15.930,17.577 15.930,17.577 C15.930,17.577 16.454,18.943 17.148,20.179 C18.501,22.588 19.132,23.115 19.592,22.858 C20.262,22.480 20.060,19.448 20.060,19.448 C20.060,19.448 20.072,18.350 19.722,17.859 C19.452,17.479 18.942,17.368 18.717,17.338 C18.534,17.312 18.833,16.877 19.222,16.681 C19.804,16.386 20.834,16.370 22.052,16.381 C22.999,16.392 23.271,16.453 23.642,16.547 C24.760,16.822 24.381,17.897 24.381,20.472 C24.381,21.297 24.236,22.456 24.814,22.842 C25.063,23.007 25.669,22.867 27.186,20.209 C27.907,18.951 28.446,17.467 28.446,17.467 C28.446,17.467 28.565,17.204 28.747,17.092 C28.935,16.977 29.188,17.011 29.188,17.011 L32.597,16.990 C32.597,16.990 33.622,16.863 33.789,17.342 C33.962,17.841 33.405,19.009 32.013,20.925 C29.724,24.066 29.469,23.770 31.370,25.589 Z" class="cls-1"/>
</svg>
