<svg xmlns="http://www.w3.org/2000/svg" xmlns:xlink="http://www.w3.org/1999/xlink" preserveAspectRatio="xMidYMid" width="16" height="11" viewBox="0 0 16 11">
  <defs>
    <style>
      .cls-1 {
        fill: #e2e2e2;
        fill-rule: evenodd;
      }
    </style>
  </defs>
  <path d="M14.924,0.305 C14.903,0.303 14.883,0.306 14.862,0.306 C14.855,0.305 14.849,0.307 14.841,0.306 C14.822,0.307 14.802,0.307 14.782,0.309 C14.661,0.317 14.543,0.361 14.453,0.447 C14.229,0.664 14.013,0.805 13.813,0.870 C13.418,0.997 13.047,0.826 12.474,0.538 C11.812,0.204 10.988,-0.210 9.946,0.124 C9.254,0.346 8.552,0.885 7.812,1.757 C6.504,0.277 5.338,-0.209 4.086,0.193 C3.733,0.306 3.423,0.470 3.123,0.629 C2.869,0.763 2.630,0.889 2.405,0.962 C2.405,0.962 2.405,0.962 2.404,0.962 C2.101,1.060 1.727,1.118 1.141,0.577 C0.995,0.442 0.778,0.403 0.588,0.479 C0.472,0.526 0.387,0.612 0.335,0.714 C0.330,0.722 0.326,0.730 0.322,0.739 C0.309,0.767 0.300,0.797 0.293,0.827 C0.291,0.836 0.286,0.844 0.285,0.853 C0.285,0.853 0.001,2.804 0.001,2.826 L0.097,10.163 C0.099,10.354 0.232,10.520 0.426,10.575 C0.499,10.596 0.597,10.627 0.703,10.660 C1.039,10.766 1.290,10.843 1.470,10.870 C2.719,11.056 3.715,10.794 4.593,10.564 C5.482,10.330 6.198,10.143 6.982,10.454 L7.041,10.674 C7.091,10.865 7.272,11.001 7.482,11.004 L8.235,10.996 C8.446,10.990 8.623,10.850 8.670,10.656 L8.722,10.437 C9.520,10.111 10.412,10.312 11.456,10.551 C12.687,10.833 14.083,11.153 15.683,10.661 C15.685,10.660 15.686,10.660 15.688,10.660 C15.877,10.599 16.003,10.432 16.002,10.244 L15.945,2.553 C15.945,2.509 15.304,0.605 15.304,0.605 C15.249,0.443 15.101,0.327 14.924,0.305 ZM8.330,2.690 C9.045,1.772 9.698,1.215 10.273,1.031 C10.899,0.830 11.407,1.085 11.997,1.383 C12.612,1.692 13.308,2.043 14.140,1.776 C14.200,1.757 14.260,1.735 14.318,1.710 L14.386,8.012 C14.215,8.154 14.049,8.251 13.894,8.301 C13.894,8.301 13.894,8.301 13.893,8.301 C13.499,8.428 13.128,8.258 12.556,7.969 C11.895,7.636 11.071,7.220 10.028,7.555 C9.494,7.726 8.954,8.084 8.395,8.640 L8.330,2.690 ZM2.732,1.868 L2.732,1.868 C3.046,1.767 3.337,1.613 3.619,1.464 C3.891,1.320 4.149,1.184 4.413,1.099 C4.828,0.966 5.681,0.692 7.314,2.699 L7.380,8.648 C6.274,7.592 5.254,7.275 4.168,7.624 C3.815,7.737 3.504,7.901 3.204,8.060 C2.951,8.195 2.712,8.321 2.486,8.393 C2.209,8.482 1.875,8.539 1.375,8.138 L1.304,1.834 C1.762,2.017 2.234,2.028 2.732,1.868 Z" class="cls-1"/>
</svg>
