<svg xmlns="http://www.w3.org/2000/svg" xmlns:xlink="http://www.w3.org/1999/xlink" preserveAspectRatio="xMidYMid" width="16" height="16" viewBox="0 0 16 16">
  <defs>
    <style>
      .cls-1 {
        fill: #d4d4d4;
        fill-rule: evenodd;
      }
    </style>
  </defs>
  <path d="M14.155,0.992 L16.006,2.844 L14.095,4.756 L13.926,4.926 L13.576,5.275 L10.730,2.429 L11.250,1.910 L13.161,-0.002 L13.735,0.572 L11.823,2.484 L12.243,2.904 L14.155,0.992 ZM8.178,3.967 C7.731,4.527 7.568,5.411 7.395,6.347 C7.258,7.090 7.117,7.846 6.825,8.491 C7.514,7.905 7.868,7.053 8.188,6.280 C8.614,5.251 9.055,4.189 10.268,4.360 L10.188,4.923 C9.447,4.818 9.171,5.390 8.713,6.497 C8.423,7.197 8.086,8.013 7.476,8.658 C9.191,8.220 10.796,7.322 10.796,5.494 L11.364,5.494 C11.364,7.113 10.284,8.321 8.286,9.003 C10.157,8.721 11.551,8.123 12.190,7.286 C12.619,6.724 12.724,6.069 12.510,5.284 L13.058,5.135 C13.318,6.089 13.178,6.929 12.641,7.630 C11.178,9.547 7.289,9.754 5.685,9.754 L4.747,9.754 L5.527,9.233 C6.393,8.657 6.618,7.430 6.837,6.244 C7.014,5.280 7.198,4.283 7.735,3.612 C8.756,2.335 10.094,2.639 10.658,2.978 L10.366,3.465 C10.317,3.436 9.140,2.764 8.178,3.967 ZM3.697,10.038 C3.697,10.038 6.419,10.691 10.512,9.754 C10.778,9.693 11.037,9.660 11.223,9.677 C12.631,9.803 13.352,10.771 13.352,12.026 C13.352,13.281 12.335,14.298 11.080,14.298 C10.647,14.298 10.244,14.175 9.899,13.965 C9.562,14.343 9.071,14.582 8.524,14.582 C8.402,14.582 8.282,14.570 8.166,14.547 C7.933,15.385 7.166,16.002 6.253,16.002 C5.674,16.002 5.154,15.753 4.791,15.357 C4.447,15.679 3.986,15.877 3.478,15.877 C2.414,15.877 1.551,15.014 1.551,13.949 C1.551,13.772 1.577,13.601 1.622,13.438 C1.598,13.440 1.575,13.442 1.551,13.442 C0.767,13.442 0.132,12.806 0.132,12.022 C0.132,11.675 0.257,11.357 0.464,11.110 C0.180,10.785 0.006,10.361 0.006,9.896 C0.006,8.986 0.943,8.103 1.809,7.951 L1.566,7.511 C1.140,7.232 0.858,6.751 0.858,6.204 C0.858,5.341 1.557,4.642 2.420,4.642 C2.749,4.642 3.053,4.744 3.305,4.918 C3.565,4.417 4.088,4.074 4.691,4.074 C5.532,4.074 6.216,4.739 6.250,5.572 C6.289,5.782 6.298,6.033 6.253,6.346 C5.969,8.334 3.697,10.038 3.697,10.038 Z" class="cls-1"/>
</svg>
