<svg xmlns="http://www.w3.org/2000/svg" xmlns:xlink="http://www.w3.org/1999/xlink" preserveAspectRatio="xMidYMid" width="48.063" height="47.94" viewBox="0 0 48.063 47.94">
  <defs>
    <style>
      .cls-1 {
        fill: #fff;
        fill-rule: evenodd;
      }
    </style>
  </defs>
  <path d="M24.032,0.009 C10.764,0.009 0.008,10.739 0.008,23.975 C0.008,37.211 10.764,47.941 24.032,47.941 C37.300,47.941 48.057,37.211 48.057,23.975 C48.057,10.739 37.300,0.009 24.032,0.009 ZM20.720,35.958 L20.720,23.502 L18.236,23.502 L18.236,19.916 L20.720,19.916 L20.720,17.508 C20.720,16.447 20.747,14.809 21.520,13.795 C22.335,12.721 23.452,11.991 25.375,11.991 C28.509,11.991 29.828,12.437 29.828,12.437 L29.207,16.107 C29.207,16.107 28.172,15.809 27.207,15.809 C26.240,15.809 25.375,16.154 25.375,17.118 L25.375,19.916 L29.336,19.916 L29.060,23.502 L25.375,23.502 L25.375,35.958 L20.720,35.958 Z" class="cls-1"/>
</svg>
