<svg xmlns="http://www.w3.org/2000/svg" xmlns:xlink="http://www.w3.org/1999/xlink" preserveAspectRatio="xMidYMid" width="16" height="16" viewBox="0 0 16 16">
  <defs>
    <style>
      .cls-1 {
        fill: #d4d4d4;
        fill-rule: evenodd;
      }
    </style>
  </defs>
  <path d="M7.273,8.501 L7.273,0.000 L16.000,0.000 L16.000,8.501 L7.273,8.501 ZM9.951,1.054 C9.532,1.054 9.192,1.398 9.192,1.822 C9.192,2.247 9.532,2.591 9.951,2.591 C10.371,2.591 10.711,2.247 10.711,1.822 C10.711,1.398 10.371,1.054 9.951,1.054 ZM9.951,3.425 C9.532,3.425 9.192,3.769 9.192,4.193 C9.192,4.618 9.532,4.961 9.951,4.961 C10.371,4.961 10.711,4.618 10.711,4.193 C10.711,3.769 10.371,3.425 9.951,3.425 ZM9.951,5.796 C9.532,5.796 9.192,6.140 9.192,6.564 C9.192,6.988 9.532,7.332 9.951,7.332 C10.371,7.332 10.711,6.988 10.711,6.564 C10.711,6.140 10.371,5.796 9.951,5.796 ZM13.355,1.054 C12.936,1.054 12.596,1.398 12.596,1.822 C12.596,2.247 12.936,2.591 13.355,2.591 C13.775,2.591 14.115,2.247 14.115,1.822 C14.115,1.398 13.775,1.054 13.355,1.054 ZM13.355,3.425 C12.936,3.425 12.596,3.769 12.596,4.193 C12.596,4.618 12.936,4.961 13.355,4.961 C13.775,4.961 14.115,4.618 14.115,4.193 C14.115,3.769 13.775,3.425 13.355,3.425 ZM13.355,5.796 C12.936,5.796 12.596,6.140 12.596,6.564 C12.596,6.988 12.936,7.332 13.355,7.332 C13.775,7.332 14.115,6.988 14.115,6.564 C14.115,6.140 13.775,5.796 13.355,5.796 ZM8.727,16.000 L0.000,16.000 L0.000,6.992 L5.818,6.992 L5.818,9.995 L8.727,9.995 L8.727,16.000 ZM2.630,8.467 C2.333,8.161 1.852,8.161 1.556,8.467 C1.259,8.773 1.259,9.269 1.556,9.575 C1.852,9.881 2.333,9.881 2.629,9.575 C2.926,9.269 2.926,8.773 2.630,8.467 ZM2.679,13.005 C2.383,12.698 1.902,12.699 1.605,13.005 C1.309,13.311 1.309,13.807 1.606,14.113 C1.902,14.419 2.383,14.419 2.679,14.113 C2.976,13.807 2.976,13.311 2.679,13.005 ZM4.816,10.758 C4.519,10.452 4.039,10.452 3.742,10.758 C3.446,11.065 3.445,11.560 3.742,11.866 C4.038,12.173 4.520,12.173 4.816,11.866 C5.112,11.560 5.112,11.064 4.816,10.758 ZM7.002,12.980 C6.706,12.674 6.225,12.674 5.928,12.980 C5.632,13.286 5.632,13.782 5.928,14.089 C6.225,14.395 6.705,14.395 7.002,14.088 C7.299,13.782 7.299,13.286 7.002,12.980 Z" class="cls-1"/>
</svg>
