<svg xmlns="http://www.w3.org/2000/svg" xmlns:xlink="http://www.w3.org/1999/xlink" preserveAspectRatio="xMidYMid" width="56.062" height="22" viewBox="0 0 56.062 22">
  <defs>
    <style>
      .cls-1 {
        fill: #fff;
        fill-rule: evenodd;
      }
    </style>
  </defs>
  <path d="M49.027,21.194 C47.801,21.727 46.351,21.997 44.726,21.997 C39.986,21.997 35.062,19.779 32.751,16.602 C30.944,14.110 30.128,10.626 29.994,7.823 C29.991,7.824 29.989,7.827 29.987,7.828 C29.925,6.905 28.946,6.259 28.107,6.259 L27.953,6.259 C27.115,6.259 26.135,6.905 26.074,7.828 C26.072,7.826 26.069,7.824 26.067,7.823 C25.934,10.625 25.117,14.109 23.311,16.599 C20.999,19.779 16.074,21.997 11.336,21.997 C9.710,21.997 8.261,21.727 7.030,21.192 C3.000,19.462 -0.842,11.006 0.183,6.113 C0.785,3.272 2.786,1.409 5.971,0.721 C8.139,0.254 10.383,0.143 11.588,0.084 C11.810,0.073 12.001,0.064 12.153,0.054 C12.182,0.053 12.983,-0.000 14.180,-0.000 C17.547,-0.000 21.454,0.385 23.814,1.887 C24.554,2.278 26.245,3.299 28.029,3.299 C29.812,3.299 31.503,2.279 32.243,1.889 C34.602,0.386 38.513,-0.000 41.880,-0.000 C43.077,-0.000 43.878,0.053 43.910,0.055 C44.059,0.064 44.250,0.073 44.473,0.084 C45.677,0.143 47.922,0.254 50.088,0.721 C53.274,1.409 55.276,3.273 55.876,6.111 C56.903,11.007 53.061,19.463 49.027,21.194 ZM51.108,5.750 C50.405,4.771 49.193,4.462 48.097,4.287 C46.448,4.029 44.767,4.042 43.863,4.048 L43.479,4.049 C43.477,4.049 43.476,4.049 43.476,4.049 C43.011,4.049 42.632,4.428 42.629,4.898 C42.628,5.368 43.005,5.751 43.471,5.753 L43.877,5.752 C44.730,5.745 46.324,5.734 47.835,5.970 C48.885,6.138 49.473,6.379 49.738,6.748 C49.953,7.047 50.009,7.525 49.905,8.167 C49.831,8.632 50.143,9.069 50.604,9.145 C50.650,9.153 50.697,9.157 50.741,9.157 C51.148,9.157 51.506,8.860 51.573,8.441 C51.754,7.319 51.602,6.439 51.108,5.750 Z" class="cls-1"/>
</svg>
