<svg xmlns="http://www.w3.org/2000/svg" xmlns:xlink="http://www.w3.org/1999/xlink" preserveAspectRatio="xMidYMid" width="52.97" height="32" viewBox="0 0 52.97 32">
  <defs>
    <style>
      .cls-1 {
        fill: #5ac4c4;
        fill-rule: evenodd;
      }
    </style>
  </defs>
  <path d="M52.978,20.233 C52.489,21.986 50.622,23.553 49.150,24.583 C47.498,25.740 45.657,26.659 43.715,27.268 C42.097,27.775 40.367,28.135 38.622,28.268 C38.987,29.155 39.369,30.040 40.060,30.742 C40.510,31.200 39.795,31.895 39.344,31.437 C38.472,30.550 38.018,29.436 37.558,28.317 C37.339,28.321 37.119,28.322 36.901,28.319 C37.097,29.270 37.309,30.211 37.851,31.044 C38.201,31.581 37.324,32.073 36.977,31.539 C36.354,30.581 36.112,29.494 35.887,28.398 C35.878,28.354 35.875,28.313 35.877,28.273 C34.539,28.174 33.222,27.918 31.971,27.462 C27.707,25.905 25.201,22.581 24.068,18.368 C23.247,15.318 22.857,12.150 22.351,9.040 C21.989,6.812 21.773,4.069 20.068,2.372 C19.109,3.642 19.029,5.575 18.786,7.065 C18.473,8.980 18.316,11.023 17.549,12.834 C16.622,15.024 15.099,16.780 12.672,17.459 C11.886,17.678 11.072,17.807 10.250,17.850 C10.178,18.666 9.767,19.424 9.149,19.980 C9.654,20.090 10.156,20.193 10.656,20.272 C12.405,20.550 14.187,20.791 15.965,20.753 C17.418,20.721 19.653,20.811 20.900,19.986 C21.234,19.765 21.585,20.184 21.419,20.490 C21.156,20.978 20.912,21.509 20.701,22.067 C18.032,22.190 15.352,22.017 12.696,21.764 C9.480,21.457 6.237,21.385 3.029,21.033 C3.004,20.468 2.961,19.903 2.901,19.339 C3.223,19.226 3.579,19.161 3.972,19.157 C4.370,19.153 4.769,19.175 5.168,19.215 C5.191,19.201 5.213,19.187 5.240,19.175 C5.989,18.846 6.905,18.408 7.253,17.634 C6.590,17.503 5.940,17.318 5.314,17.079 C3.306,16.311 0.764,14.951 0.017,12.837 C-0.091,12.532 0.191,12.216 0.505,12.216 C5.314,12.216 6.343,6.355 9.114,3.560 C10.658,2.001 12.559,0.778 14.813,0.496 C16.515,0.283 18.627,0.164 20.106,1.163 C20.174,1.208 20.225,1.262 20.261,1.320 C20.273,1.329 20.284,1.341 20.296,1.351 C20.303,1.345 20.307,1.338 20.316,1.332 C22.669,-0.360 26.487,-0.126 29.217,0.323 C33.027,0.949 36.382,3.175 38.793,6.055 C42.807,10.846 44.836,19.612 52.490,19.612 C52.820,19.612 53.064,19.925 52.978,20.233 ZM6.808,19.467 C7.276,19.560 7.743,19.663 8.208,19.769 C8.175,19.630 8.212,19.479 8.361,19.352 C8.818,18.964 9.161,18.448 9.235,17.861 C8.915,17.851 8.595,17.827 8.276,17.792 C8.274,17.799 8.274,17.806 8.271,17.813 C7.993,18.538 7.448,19.061 6.808,19.467 ZM10.720,9.817 C10.297,11.614 8.765,13.148 6.747,12.668 C6.240,12.547 6.025,13.305 6.532,13.425 C8.970,14.005 10.976,12.257 11.501,10.026 C11.617,9.533 10.835,9.323 10.720,9.817 ZM13.085,3.282 C12.433,3.282 12.433,4.263 13.085,4.263 C13.738,4.263 13.738,3.282 13.085,3.282 ZM28.473,3.282 C27.820,3.282 27.820,4.263 28.473,4.263 C29.126,4.263 29.126,3.282 28.473,3.282 ZM40.918,16.073 C40.534,15.409 39.746,15.175 39.030,14.921 C39.242,14.502 38.575,14.142 38.312,14.562 C37.457,15.924 35.500,16.277 33.980,16.068 C31.962,15.791 30.919,13.803 30.750,12.038 C30.702,11.538 29.891,11.534 29.940,12.038 C30.132,14.045 31.141,15.856 33.060,16.605 C32.389,18.377 30.080,21.173 32.172,22.804 C33.297,23.680 36.539,24.918 37.931,24.070 C39.640,23.029 40.452,20.307 40.946,18.534 C41.150,17.803 41.323,16.775 40.918,16.073 ZM37.778,23.209 C36.833,24.183 33.827,22.843 32.905,22.342 C30.943,21.276 33.270,18.269 33.831,16.838 C34.058,16.886 34.292,16.918 34.532,16.933 C34.041,17.935 33.437,18.895 33.017,19.927 C32.798,20.462 32.825,20.763 33.298,21.139 C34.213,21.866 36.009,22.410 37.188,22.275 C37.637,22.224 37.895,21.682 38.099,21.352 C38.717,20.355 39.139,19.206 39.637,18.150 C40.321,16.699 39.449,16.187 38.216,15.832 C38.320,15.748 38.421,15.660 38.515,15.567 C39.455,15.938 40.224,16.037 40.336,17.179 C40.396,17.774 40.143,18.429 39.971,18.988 C39.524,20.431 38.861,22.093 37.778,23.209 ZM34.633,22.154 C34.144,22.154 34.144,22.890 34.633,22.890 C35.123,22.890 35.123,22.154 34.633,22.154 ZM39.366,17.161 C39.412,17.828 38.775,18.668 38.503,19.256 C38.214,19.879 37.660,21.785 36.793,21.742 C35.838,21.695 34.791,21.338 33.954,20.912 C33.175,20.516 33.486,20.191 33.826,19.496 C34.231,18.670 34.698,17.875 35.093,17.043 C35.110,17.007 35.118,16.971 35.120,16.937 C35.987,16.897 36.875,16.657 37.623,16.233 C38.143,16.361 39.320,16.494 39.366,17.161 ZM2.372,19.582 C2.765,23.602 2.125,27.657 2.610,31.673 C1.153,31.237 0.051,30.278 -0.002,28.352 C-0.059,26.286 0.060,23.620 0.786,21.649 C1.112,20.763 1.629,20.021 2.372,19.582 ZM3.104,27.025 C8.780,26.944 14.441,27.475 20.115,27.523 C20.199,27.891 20.317,28.249 20.469,28.592 C14.640,28.476 8.809,28.308 2.978,28.300 C2.975,27.868 2.977,27.435 2.984,27.002 C3.018,27.017 3.058,27.026 3.104,27.025 ZM20.509,22.615 C20.396,22.956 20.298,23.305 20.216,23.658 C14.510,23.625 8.809,23.212 3.104,23.159 C3.088,23.159 3.077,23.165 3.063,23.167 C3.067,22.636 3.064,22.105 3.050,21.575 C6.104,21.906 9.181,21.922 12.238,22.256 C14.973,22.556 17.755,22.728 20.509,22.615 ZM19.955,25.457 C19.928,25.972 19.947,26.484 20.018,26.981 C14.376,26.928 8.748,26.404 3.104,26.485 C3.062,26.486 3.026,26.495 2.994,26.509 C3.003,26.071 3.014,25.634 3.025,25.196 C3.050,25.203 3.074,25.211 3.104,25.211 C8.718,25.141 14.352,26.029 19.955,25.457 ZM3.104,23.699 C8.772,23.751 14.436,24.159 20.106,24.197 C20.063,24.435 20.027,24.673 20.001,24.912 C14.383,25.493 8.733,24.600 3.104,24.671 C3.079,24.671 3.059,24.680 3.037,24.685 C3.045,24.353 3.052,24.021 3.057,23.690 C3.074,23.692 3.086,23.699 3.104,23.699 ZM21.173,29.743 C15.179,29.448 9.145,29.691 3.157,29.912 C3.103,29.914 3.060,29.930 3.023,29.952 C3.004,29.582 2.991,29.211 2.985,28.840 C8.908,28.848 14.829,29.022 20.750,29.138 C20.875,29.348 21.015,29.550 21.173,29.743 ZM3.157,30.452 C9.324,30.224 15.540,29.971 21.709,30.310 C21.826,30.417 21.948,30.520 22.078,30.620 C22.079,30.621 22.080,30.621 22.081,30.623 C22.083,30.624 22.085,30.626 22.088,30.628 C22.221,30.729 22.242,30.855 22.199,30.968 C22.199,31.042 22.199,31.116 22.199,31.190 C22.199,31.390 22.026,31.559 21.819,31.559 C18.850,31.548 15.884,31.375 12.915,31.391 C10.917,31.402 9.030,31.661 7.056,31.875 C5.828,32.008 4.411,32.063 3.170,31.812 C3.172,31.792 3.178,31.774 3.175,31.751 C3.121,31.312 3.082,30.874 3.052,30.435 C3.083,30.446 3.117,30.453 3.157,30.452 Z" class="cls-1"/>
</svg>
