<svg xmlns="http://www.w3.org/2000/svg" xmlns:xlink="http://www.w3.org/1999/xlink" preserveAspectRatio="xMidYMid" width="63" height="63" viewBox="0 0 63 63">
  <defs>
    <style>
      .cls-1 {
        fill: #fff;
        opacity: 0.4;
        fill-rule: evenodd;
      }
    </style>
  </defs>
  <path d="M31.502,62.990 C14.104,62.990 -0.000,48.890 -0.000,31.496 C-0.000,14.105 14.104,0.005 31.502,0.005 C48.902,0.005 63.005,14.105 63.005,31.496 C63.005,48.890 48.902,62.990 31.502,62.990 ZM31.503,3.156 C15.848,3.156 3.152,15.847 3.152,31.496 C3.152,47.152 15.848,59.839 31.503,59.839 C47.165,59.839 59.856,47.152 59.856,31.496 C59.856,15.847 47.165,3.156 31.503,3.156 ZM35.944,44.281 L23.254,32.853 C22.135,32.003 22.134,30.421 23.254,29.570 L35.944,18.132 C36.918,17.391 38.387,18.818 38.387,19.983 L25.987,31.500 L38.387,42.430 C38.387,43.594 36.919,45.021 35.944,44.281 Z" class="cls-1"/>
</svg>
