<svg xmlns="http://www.w3.org/2000/svg" xmlns:xlink="http://www.w3.org/1999/xlink" preserveAspectRatio="xMidYMid" width="16.03" height="16" viewBox="0 0 16.03 16">
  <defs>
    <style>
      .cls-1 {
        fill: #fff;
        fill-rule: evenodd;
      }
    </style>
  </defs>
  <path d="M15.501,13.434 L11.928,10.186 C11.625,9.912 11.548,9.469 11.738,9.107 C12.310,8.021 12.571,6.745 12.399,5.399 C12.059,2.723 9.949,0.520 7.289,0.084 C3.037,-0.614 -0.587,3.009 0.106,7.260 C0.540,9.919 2.734,12.030 5.404,12.377 C6.749,12.552 8.022,12.295 9.107,11.728 C9.465,11.541 9.902,11.617 10.176,11.913 L13.537,15.543 C14.125,16.176 15.174,16.131 15.727,15.436 C16.204,14.836 16.069,13.950 15.501,13.434 ZM1.621,6.215 C1.621,3.664 3.687,1.598 6.236,1.598 C8.785,1.598 10.851,3.664 10.851,6.215 C10.851,8.764 8.785,10.830 6.236,10.830 C3.687,10.830 1.621,8.764 1.621,6.215 Z" class="cls-1"/>
</svg>
