<svg xmlns="http://www.w3.org/2000/svg" xmlns:xlink="http://www.w3.org/1999/xlink" preserveAspectRatio="xMidYMid" width="16" height="23" viewBox="0 0 16 23">
  <defs>
    <style>
      .cls-1 {
        fill: #d4d4d4;
        fill-rule: evenodd;
      }
    </style>
  </defs>
  <path d="M15.775,16.762 C15.444,17.609 15.038,17.720 14.880,17.564 C14.646,17.331 14.475,12.187 13.851,11.143 C13.900,12.016 14.711,15.679 14.584,18.824 C14.527,20.253 13.836,21.376 13.523,21.688 C12.523,22.688 11.984,22.996 11.984,22.996 C11.984,22.996 8.502,22.996 8.319,22.996 C8.136,22.996 8.003,22.651 8.003,22.651 L7.998,22.652 L7.994,22.651 C7.994,22.651 7.860,22.996 7.678,22.996 C7.495,22.996 4.013,22.996 4.013,22.996 C4.013,22.996 3.474,22.688 2.473,21.688 C2.161,21.376 1.470,20.253 1.412,18.824 C1.286,15.679 2.096,12.016 2.146,11.143 C1.521,12.187 1.350,17.331 1.116,17.564 C0.959,17.720 0.553,17.609 0.221,16.762 C-0.471,14.993 0.606,12.529 0.837,11.798 C1.068,11.067 3.012,7.604 3.397,6.680 C3.781,5.756 4.781,4.294 4.781,4.294 C4.781,4.294 4.781,2.447 4.781,1.985 C4.781,1.523 5.012,-0.555 6.012,0.138 C7.012,0.831 6.396,3.832 6.396,3.832 C6.396,3.832 6.939,3.636 7.935,3.636 C7.957,3.636 7.977,3.637 7.998,3.637 C8.019,3.636 8.040,3.636 8.061,3.636 C9.057,3.636 9.600,3.832 9.600,3.832 C9.600,3.832 8.984,0.831 9.984,0.138 C10.984,-0.555 11.215,1.523 11.215,1.985 C11.215,2.447 11.215,4.294 11.215,4.294 C11.215,4.294 12.215,5.756 12.600,6.680 C12.985,7.604 14.929,11.067 15.159,11.798 C15.390,12.529 16.468,14.992 15.775,16.762 ZM5.398,5.540 C4.984,5.540 4.648,5.817 4.648,6.279 C4.648,6.742 4.885,7.018 5.300,7.018 C5.714,7.018 6.050,6.742 6.050,6.279 C6.050,5.817 5.812,5.540 5.398,5.540 ZM7.983,5.888 C7.517,5.888 6.978,6.055 6.978,6.262 C6.978,6.469 7.228,6.637 7.983,6.637 C8.739,6.637 8.988,6.469 8.988,6.262 C8.988,6.055 8.406,5.888 7.983,5.888 ZM10.417,5.540 C10.004,5.540 9.765,5.817 9.765,6.279 C9.765,6.742 10.101,7.018 10.516,7.018 C10.930,7.018 11.167,6.742 11.167,6.279 C11.167,5.817 10.832,5.540 10.417,5.540 ZM8.065,9.162 C4.150,9.162 1.960,12.139 1.960,15.811 C1.960,18.296 3.348,21.958 8.065,22.461 C12.476,22.210 14.071,17.894 14.071,15.811 C14.071,12.139 11.824,9.162 8.065,9.162 ZM12.902,13.683 C12.527,13.586 12.125,13.888 12.171,13.714 C12.216,13.539 12.653,13.101 13.028,13.198 C13.402,13.295 13.573,13.890 13.527,14.065 C13.482,14.239 13.277,13.780 12.902,13.683 ZM11.475,11.364 C11.042,11.252 10.592,11.541 10.637,11.367 C10.682,11.192 11.167,10.767 11.601,10.879 C12.035,10.991 12.252,11.599 12.207,11.774 C12.162,11.948 11.909,11.477 11.475,11.364 ZM11.699,13.272 C11.679,13.451 11.361,13.021 10.915,12.973 C10.470,12.925 10.067,13.276 10.086,13.097 C10.105,12.918 10.524,12.426 10.969,12.475 C11.415,12.523 11.718,13.092 11.699,13.272 ZM9.260,10.557 C8.813,10.528 8.425,10.897 8.437,10.718 C8.448,10.537 8.845,10.029 9.292,10.057 C9.739,10.086 10.068,10.641 10.056,10.821 C10.044,11.001 9.707,10.586 9.260,10.557 ZM9.251,12.888 C9.249,13.067 8.859,12.674 8.371,12.668 C7.884,12.662 7.484,13.046 7.486,12.868 C7.488,12.690 7.890,12.167 8.377,12.172 C8.865,12.178 9.254,12.710 9.251,12.888 ZM6.839,10.557 C6.392,10.586 6.055,11.001 6.043,10.821 C6.031,10.641 6.360,10.086 6.807,10.057 C7.254,10.029 7.651,10.537 7.662,10.718 C7.673,10.897 7.286,10.528 6.839,10.557 ZM5.480,13.060 C5.057,13.209 4.845,13.700 4.785,13.530 C4.726,13.360 4.891,12.736 5.314,12.588 C5.737,12.440 6.256,12.822 6.316,12.992 C6.376,13.162 5.903,12.912 5.480,13.060 ZM4.394,11.368 C3.960,11.480 3.707,11.952 3.662,11.777 C3.617,11.602 3.834,10.995 4.268,10.883 C4.702,10.770 5.187,11.196 5.232,11.371 C5.278,11.545 4.827,11.255 4.394,11.368 ZM3.830,13.714 C3.875,13.888 3.473,13.586 3.098,13.683 C2.724,13.780 2.518,14.239 2.473,14.065 C2.428,13.890 2.598,13.295 2.973,13.198 C3.347,13.101 3.785,13.539 3.830,13.714 ZM10.499,6.492 C10.365,6.492 10.256,6.380 10.256,6.242 C10.256,6.104 10.365,5.993 10.499,5.993 C10.634,5.993 10.743,6.104 10.743,6.242 C10.743,6.380 10.634,6.492 10.499,6.492 ZM5.316,6.492 C5.182,6.492 5.073,6.380 5.073,6.242 C5.073,6.104 5.182,5.993 5.316,5.993 C5.451,5.993 5.559,6.104 5.559,6.242 C5.559,6.380 5.451,6.492 5.316,6.492 Z" class="cls-1"/>
</svg>
