<?xml version="1.0"?>
<!--Icons from directory ""-->
<svg xmlns="http://www.w3.org/2000/svg" width="64" height="495" viewBox="0 0 64 495"><svg xmlns:xlink="http://www.w3.org/1999/xlink" height="56" width="56" preserveAspectRatio="xMidYMid" viewBox="-4 -4 56.063 55.94" id="facebook" y="0"><defs><style>.cls-1 {        fill: #fff;        fill-rule: evenodd;      }</style></defs><path d="m24.032 0.009c-13.268 0-24.024 10.73-24.024 23.966s10.756 23.966 24.024 23.966 24.025-10.73 24.025-23.966-10.757-23.966-24.025-23.966zm-3.312 35.949v-12.456h-2.484v-3.586h2.484v-2.408c0-1.061 0.027-2.699 0.8-3.713 0.815-1.074 1.932-1.804 3.855-1.804 3.134 0 4.453 0.446 4.453 0.446l-0.621 3.67s-1.035-0.298-2-0.298c-0.967 0-1.832 0.345-1.832 1.309v2.798h3.961l-0.276 3.586h-3.685v12.456h-4.655z" class="cls-1"/></svg><svg xmlns:xlink="http://www.w3.org/1999/xlink" height="30" width="64" preserveAspectRatio="xMidYMid" viewBox="-4 -4 64.062 30" id="glasses" y="56"><defs><style>.cls-1 {        fill: #fff;        fill-rule: evenodd;      }</style></defs><path d="m49.027 21.194c-1.226 0.533-2.676 0.803-4.301 0.803-4.74 0-9.664-2.218-11.975-5.395-1.807-2.492-2.623-5.976-2.757-8.779-0.003 0.001-0.005 0.004-0.007 0.005-0.062-0.923-1.041-1.569-1.88-1.569h-0.154c-0.838 0-1.818 0.646-1.879 1.569-0.002-0.002-0.005-0.004-0.007-0.005-0.133 2.802-0.95 6.286-2.756 8.776-2.312 3.18-7.237 5.398-11.975 5.398-1.626 0-3.075-0.27-4.306-0.805-4.03-1.73-7.872-10.186-6.847-15.079 0.602-2.841 2.603-4.704 5.788-5.392 2.168-0.467 4.412-0.578 5.617-0.637 0.222-0.011 0.413-0.02 0.565-0.03 0.029-0.001 0.83-0.054 2.027-0.054 3.367 0 7.274 0.385 9.634 1.887 0.74 0.391 2.431 1.412 4.215 1.412 1.783 0 3.474-1.02 4.214-1.41 2.359-1.503 6.27-1.889 9.637-1.889 1.197 0 1.998 0.053 2.03 0.055 0.149 0.009 0.34 0.018 0.563 0.029 1.204 0.059 3.449 0.17 5.615 0.637 3.186 0.688 5.188 2.552 5.788 5.39 1.027 4.896-2.815 13.352-6.849 15.083zm2.081-15.444c-0.703-0.979-1.915-1.288-3.011-1.463-1.649-0.258-3.33-0.245-4.234-0.239l-0.384 0.001h-0.003c-0.465 0-0.844 0.379-0.847 0.849-0.001 0.47 0.376 0.853 0.842 0.855l0.406-0.001c0.853-0.007 2.447-0.018 3.958 0.218 1.05 0.168 1.638 0.409 1.903 0.778 0.215 0.299 0.271 0.777 0.167 1.419-0.074 0.465 0.238 0.902 0.699 0.978 0.046 0.008 0.093 0.012 0.137 0.012 0.407 0 0.765-0.297 0.832-0.716 0.181-1.122 0.029-2.002-0.465-2.691z" class="cls-1"/></svg><svg xmlns:xlink="http://www.w3.org/1999/xlink" height="49" width="51" preserveAspectRatio="xMidYMid" viewBox="-4 -4 51 49" id="heart" y="86"><defs><style>.cls-1 {        fill: #fff;        fill-rule: evenodd;      }</style></defs><path d="m28.662 0.007c-2.61 0-5.057 0.692-7.165 1.901-2.108-1.209-4.556-1.901-7.167-1.901-7.915 0-14.332 6.359-14.332 14.203 0 11.505 21.498 26.786 21.498 26.786s21.498-14.921 21.498-26.786c0-7.845-6.417-14.203-14.332-14.203z" class="cls-1"/></svg><svg xmlns:xlink="http://www.w3.org/1999/xlink" height="30" width="64" preserveAspectRatio="xMidYMid" viewBox="-4 -4 64.062 30" id="hover_glasses" y="135"><defs><style>.cls-1 {        fill: #fff;        fill-rule: evenodd;      }</style></defs><path d="m49.027 21.194c-1.226 0.533-2.676 0.803-4.301 0.803-4.74 0-9.664-2.218-11.975-5.395-1.807-2.492-2.623-5.976-2.757-8.779-0.003 0.001-0.005 0.004-0.007 0.005-0.062-0.923-1.041-1.569-1.88-1.569h-0.154c-0.838 0-1.818 0.646-1.879 1.569-0.002-0.002-0.005-0.004-0.007-0.005-0.133 2.802-0.95 6.286-2.756 8.776-2.312 3.18-7.236 5.398-11.975 5.398-1.627 0-3.075-0.27-4.306-0.805-4.03-1.73-7.872-10.186-6.847-15.079 0.602-2.841 2.603-4.704 5.788-5.392 2.168-0.467 4.412-0.578 5.617-0.637 0.222-0.011 0.413-0.02 0.564-0.03 0.03-0.001 0.831-0.054 2.028-0.054 3.367 0 7.274 0.385 9.633 1.887 0.741 0.391 2.432 1.412 4.216 1.412 1.783 0 3.474-1.02 4.214-1.41 2.359-1.503 6.27-1.889 9.637-1.889 1.197 0 1.998 0.053 2.03 0.055 0.149 0.009 0.34 0.018 0.563 0.029 1.204 0.059 3.449 0.17 5.615 0.637 3.186 0.688 5.188 2.552 5.788 5.39 1.027 4.896-2.815 13.352-6.849 15.083zm-25.383-16.157c-0.424-1.705-4.051-2.765-9.464-2.765-1.116 0-1.873 0.05-1.881 0.051-0.164 0.01-0.366 0.02-0.6 0.031-1.222 0.06-3.266 0.16-5.256 0.589-2.314 0.5-3.64 1.692-4.053 3.643-0.802 3.825 2.452 11.199 5.527 12.519 0.94 0.406 2.12 0.621 3.419 0.621 3.938 0 8.304-1.921 10.157-4.467 2.139-2.951 2.704-8.025 2.151-10.222zm30.027 1.546c-0.413-1.948-1.739-3.14-4.054-3.64-1.988-0.428-4.034-0.529-5.256-0.589-0.234-0.011-0.436-0.021-0.596-0.031-0.011-0.001-0.768-0.051-1.885-0.051-5.412 0-9.038 1.059-9.464 2.764-0.55 2.198 0.013 7.272 2.153 10.224 1.851 2.545 6.218 4.466 10.156 4.466 1.299 0 2.48-0.214 3.414-0.619 3.08-1.322 6.335-8.696 5.532-12.524zm-9.794-0.831l-0.405 0.001c-0.467-0.002-0.844-0.385-0.843-0.855 0.003-0.47 0.382-0.849 0.847-0.849h0.003l0.384-0.001c0.905-0.006 2.585-0.019 4.234 0.239 1.096 0.175 2.308 0.484 3.011 1.463 0.494 0.689 0.646 1.569 0.465 2.691-0.067 0.419-0.425 0.716-0.832 0.716-0.045 0-0.091-0.004-0.137-0.012-0.461-0.076-0.773-0.513-0.699-0.978 0.104-0.642 0.048-1.12-0.167-1.419-0.265-0.369-0.853-0.61-1.903-0.778-1.511-0.236-3.105-0.225-3.958-0.218z" class="cls-1"/></svg><svg xmlns:xlink="http://www.w3.org/1999/xlink" height="54" width="54" preserveAspectRatio="xMidYMid" viewBox="-4 -4 54 54" id="hover_instagram" y="165"><defs><style>.cls-1 {        fill: #fff;        fill-rule: evenodd;      }</style></defs><path d="m23 46c-12.703 0-23-10.297-23-23s10.297-23 23-23 23 10.297 23 23-10.297 23-23 23zm0-44c-11.598 0-21 9.402-21 21s9.402 21 21 21 21-9.402 21-21-9.402-21-21-21zm7.468 33.004h-14.738c-2.561 0-4.644-2.078-4.644-4.632v-9.811-4.892c0-2.554 2.083-4.631 4.644-4.631h14.738c2.561 0 4.644 2.077 4.644 4.631v4.892 9.811c0 2.554-2.083 4.632-4.644 4.632zm-3.941-14.443c-0.769-1.062-2.017-1.759-3.428-1.759s-2.66 0.697-3.428 1.759c-0.501 0.693-0.8 1.541-0.8 2.459 0 2.326 1.896 4.218 4.228 4.218 2.331 0 4.229-1.892 4.229-4.218 0-0.918-0.299-1.766-0.801-2.459zm5.805-6.236v-0.527l-0.532 0.002-3.542 0.012 0.014 4.061 4.06-0.012v-3.536zm0.439 6.236h-3.587c0.309 0.76 0.484 1.59 0.484 2.459 0 3.614-2.946 6.554-6.569 6.554s-6.569-2.94-6.569-6.554c0-0.869 0.173-1.699 0.484-2.459h-3.587v9.811c0 1.267 1.032 2.296 2.303 2.296h14.738c1.27 0 2.303-1.029 2.303-2.296v-9.811z" class="cls-1"/></svg><svg xmlns:xlink="http://www.w3.org/1999/xlink" height="54" width="54" preserveAspectRatio="xMidYMid" viewBox="-4 -4 54 54" id="hover_twitter" y="219"><defs><style>.cls-1 {        fill: #fff;        fill-rule: evenodd;      }</style></defs><path d="m23 46c-12.703 0-23-10.297-23-23s10.297-23 23-23 23 10.297 23 23-10.297 23-23 23zm0-44c-11.598 0-21 9.402-21 21s9.402 21 21 21 21-9.402 21-21-9.402-21-21-21zm11.823 17.298c0.009 0.21 0.013 0.423 0.013 0.637 0 6.511-4.963 14.017-14.044 14.017-2.787 0-5.381-0.816-7.566-2.212 0.386 0.046 0.779 0.068 1.178 0.068 2.312 0 4.441-0.788 6.13-2.11-2.16-0.037-3.983-1.463-4.61-3.419 0.3 0.058 0.61 0.087 0.928 0.087 0.451 0 0.887-0.058 1.301-0.173-2.26-0.452-3.96-2.443-3.96-4.831v-0.061c0.665 0.367 1.427 0.591 2.236 0.615-1.324-0.884-2.196-2.392-2.196-4.1 0-0.903 0.243-1.749 0.668-2.479 2.436 2.983 6.072 4.942 10.174 5.148-0.085-0.36-0.127-0.735-0.127-1.122 0-2.72 2.21-4.926 4.935-4.926 1.42 0 2.704 0.598 3.602 1.555 1.126-0.22 2.181-0.63 3.135-1.194-0.367 1.15-1.149 2.115-2.17 2.725 0.999-0.119 1.951-0.384 2.835-0.776-0.66 0.988-1.497 1.855-2.462 2.551z" class="cls-1"/></svg><svg xmlns:xlink="http://www.w3.org/1999/xlink" height="54" width="54" preserveAspectRatio="xMidYMid" viewBox="-4 -4 54 54" id="hover_vk" y="273"><defs><style>.cls-1 {        fill: #fff;        fill-rule: evenodd;      }</style></defs><path d="m23 46c-12.703 0-23-10.297-23-23s10.297-23 23-23 23 10.297 23 23-10.297 23-23 23zm0-44c-11.598 0-21 9.402-21 21s9.402 21 21 21 21-9.402 21-21-9.402-21-21-21zm8.37 23.589c1.813 1.734 2.189 2.578 2.252 2.684 0.749 1.284-0.835 1.385-0.835 1.385l-3.028 0.042s-0.65 0.134-1.507-0.472c-1.131-0.801-2.201-2.885-3.032-2.613-0.845 0.275-0.819 2.152-0.819 2.152s0.007 0.399-0.185 0.612c-0.209 0.232-0.619 0.279-0.619 0.279h-1.355s-2.991 0.186-5.626-2.642c-2.871-3.082-5.409-9.199-5.409-9.199s-0.145-0.401 0.014-0.595c0.176-0.217 0.664-0.232 0.664-0.232l3.24-0.023s0.305 0.054 0.524 0.219c0.181 0.138 0.281 0.391 0.281 0.391s0.524 1.366 1.218 2.602c1.353 2.409 1.984 2.936 2.444 2.679 0.67-0.378 0.468-3.41 0.468-3.41s0.012-1.098-0.338-1.589c-0.27-0.38-0.78-0.491-1.005-0.521-0.183-0.026 0.116-0.461 0.505-0.657 0.582-0.295 1.612-0.311 2.83-0.3 0.947 0.011 1.219 0.072 1.59 0.166 1.118 0.275 0.739 1.35 0.739 3.925 0 0.825-0.145 1.984 0.433 2.37 0.249 0.165 0.855 0.025 2.372-2.633 0.721-1.258 1.26-2.742 1.26-2.742s0.119-0.263 0.301-0.375c0.188-0.115 0.441-0.081 0.441-0.081l3.409-0.021s1.025-0.127 1.192 0.352c0.173 0.499-0.384 1.667-1.776 3.583-2.289 3.141-2.544 2.845-0.643 4.664z" class="cls-1"/></svg><svg xmlns:xlink="http://www.w3.org/1999/xlink" height="56" width="56" preserveAspectRatio="xMidYMid" viewBox="-4 -4 56.063 55.94" id="instagram" y="327"><defs><style>.cls-1 {        fill: #fff;        fill-rule: evenodd;      }</style></defs><path d="m24.034 47.926c-13.27 0-24.024-10.73-24.024-23.966 0-13.235 10.754-23.965 24.024-23.965 13.269 0 24.025 10.73 24.025 23.965 0 13.236-10.756 23.966-24.025 23.966zm12.016-26.425v-4.892c0-2.554-2.083-4.631-4.644-4.631h-14.738c-2.561 0-4.644 2.077-4.644 4.631v4.892 9.811c0 2.554 2.083 4.632 4.644 4.632h14.738c2.561 0 4.644-2.078 4.644-4.632v-9.811zm-4.644 12.107h-14.738c-1.271 0-2.303-1.029-2.303-2.296v-9.811h3.587c-0.311 0.76-0.484 1.59-0.484 2.459 0 3.614 2.946 6.554 6.569 6.554s6.569-2.94 6.569-6.554c0-0.869-0.175-1.699-0.484-2.459h3.587v9.811c0 1.267-1.033 2.296-2.303 2.296zm-2.21-18.856l3.542-0.012 0.532-0.002v0.527 3.536l-4.06 0.012-0.014-4.061zm-5.159 13.426c-2.332 0-4.228-1.892-4.228-4.218 0-0.918 0.299-1.766 0.8-2.459 0.768-1.062 2.017-1.759 3.428-1.759s2.659 0.697 3.428 1.759c0.502 0.693 0.801 1.541 0.801 2.459 0 2.326-1.898 4.218-4.229 4.218z" class="cls-1"/></svg><svg xmlns:xlink="http://www.w3.org/1999/xlink" height="56" width="56" preserveAspectRatio="xMidYMid" viewBox="-4 -4 56.031 55.94" id="twitter" y="383"><defs><style>.cls-1 {        fill: #fff;        fill-rule: evenodd;      }</style></defs><path d="m24.017-0.006c-13.265 0-24.019 10.734-24.019 23.973 0 13.241 10.754 23.973 24.019 23.973 13.264 0 24.017-10.732 24.017-23.973 0-13.239-10.753-23.973-24.017-23.973zm9.587 20.244c0.009 0.21 0.013 0.423 0.013 0.637 0 6.511-4.963 14.017-14.044 14.017-2.787 0-5.381-0.816-7.566-2.212 0.386 0.046 0.779 0.068 1.178 0.068 2.312 0 4.441-0.788 6.13-2.11-2.16-0.037-3.983-1.463-4.61-3.419 0.3 0.058 0.61 0.087 0.928 0.087 0.451 0 0.887-0.058 1.301-0.173-2.26-0.452-3.96-2.443-3.96-4.831v-0.061c0.665 0.367 1.427 0.591 2.236 0.615-1.324-0.884-2.196-2.392-2.196-4.1 0-0.903 0.243-1.749 0.668-2.479 2.436 2.983 6.072 4.942 10.174 5.148-0.085-0.36-0.127-0.735-0.127-1.122 0-2.72 2.21-4.926 4.935-4.926 1.42 0 2.704 0.598 3.602 1.555 1.126-0.22 2.181-0.63 3.135-1.194-0.367 1.15-1.15 2.115-2.17 2.725 0.999-0.119 1.951-0.384 2.835-0.776-0.66 0.988-1.497 1.855-2.462 2.551z" class="cls-1"/></svg><svg xmlns:xlink="http://www.w3.org/1999/xlink" height="56" width="56" preserveAspectRatio="xMidYMid" viewBox="-4 -4 56.031 55.94" id="vk" y="439"><defs><style>.cls-1 {        fill: #fff;        fill-rule: evenodd;      }</style></defs><path d="m24.028 0.01c13.262 0 24.014 10.73 24.014 23.965 0 13.233-10.752 23.963-24.014 23.963-13.264 0-24.017-10.73-24.017-23.963 0-13.235 10.753-23.965 24.017-23.965zm-0.911 30.588h1.355s0.41-0.047 0.619-0.279c0.192-0.213 0.185-0.612 0.185-0.612s-0.026-1.877 0.819-2.152c0.831-0.272 1.901 1.812 3.032 2.613 0.857 0.606 1.507 0.472 1.507 0.472l3.028-0.042s1.584-0.101 0.835-1.385c-0.062-0.106-0.439-0.95-2.252-2.684-1.901-1.819-1.646-1.523 0.643-4.664 1.392-1.916 1.949-3.084 1.776-3.583-0.167-0.479-1.192-0.352-1.192-0.352l-3.409 0.021s-0.253-0.034-0.441 0.081c-0.182 0.112-0.301 0.375-0.301 0.375s-0.539 1.484-1.26 2.742c-1.517 2.658-2.123 2.798-2.372 2.633-0.578-0.386-0.433-1.545-0.433-2.37 0-2.575 0.379-3.65-0.739-3.925-0.371-0.094-0.643-0.155-1.59-0.166-1.218-0.011-2.248 0.005-2.83 0.3-0.389 0.196-0.688 0.631-0.505 0.657 0.225 0.03 0.735 0.141 1.005 0.521 0.35 0.491 0.338 1.589 0.338 1.589s0.202 3.032-0.468 3.41c-0.46 0.257-1.091-0.27-2.444-2.679-0.693-1.236-1.217-2.602-1.217-2.602s-0.101-0.253-0.282-0.391c-0.219-0.165-0.524-0.219-0.524-0.219l-3.24 0.023s-0.488 0.015-0.664 0.232c-0.159 0.194-0.014 0.595-0.014 0.595s2.538 6.117 5.409 9.199c2.635 2.828 5.626 2.642 5.626 2.642z" class="cls-1"/></svg></svg>
